<svg width="481" height="402" viewBox="0 0 481 402" fill="none" xmlns="http://www.w3.org/2000/svg">
<path fill-rule="evenodd" clip-rule="evenodd" d="M186.24 26.0037C150.11 8.75366 99.6102 0.303646 32.0001 0.00365866C25.6239 -0.0829502 19.3727 1.77636 14.0802 5.33368C9.73607 8.26995 6.18004 12.2288 3.72484 16.8618C1.26964 21.4949 -0.00941594 26.6603 0.000105545 31.9037V250.007C0.000105545 269.347 13.7601 283.937 32.0001 283.937C96.1273 283.937 160.434 289.343 203.754 320.049C198.157 323.693 192.305 326.945 186.24 329.779C158.103 343.243 121.251 351.323 74.3904 354.38C66.9112 354.868 61.0001 361.014 61.0001 368.509L61.0001 382.483C61.0001 382.691 61.0046 382.898 61.0135 383.103L61.0001 383.104V401.104C114.293 398.783 155.476 390.499 186.24 375.777C197.894 370.332 208.762 363.342 218.55 354.997C220.262 353.501 221.634 351.657 222.574 349.587C223.514 347.517 224.001 345.27 224 342.997V339.004V338.999V327.985C224 327.969 224 327.953 224 327.937V58.8236C224.002 56.5492 223.515 54.3009 222.573 52.2307C221.631 50.1604 220.256 48.3166 218.54 46.8237C208.759 38.462 197.895 31.4588 186.24 26.0037ZM465.92 5.30365C460.625 1.75518 454.374 -0.0937535 448 0.00365866C380.39 0.303646 329.89 8.71368 293.76 26.0037C282.106 31.4489 271.239 38.4384 261.45 46.7836C259.738 48.2792 258.366 50.1238 257.426 52.1936C256.486 54.2634 256 56.5104 256 58.7837L256 297.004L256 297.032L256 324.997V325.002L256 327.917L256 338.999V339.004V342.997C256 345.27 256.486 347.517 257.426 349.587C258.366 351.657 259.738 353.501 261.45 354.997C271.239 363.342 282.106 370.332 293.76 375.777C324.524 390.499 365.707 398.783 419 401.104V383.104L418.987 383.103C418.991 382.997 418.995 382.891 418.997 382.784C418.999 382.684 419 382.583 419 382.483V368.509C419 361.014 413.089 354.868 405.61 354.38C358.749 351.323 321.897 343.243 293.76 329.779C287.474 326.841 281.416 323.455 275.633 319.648C303.345 299.34 350.507 283.909 448.04 283.917C456.527 283.917 464.666 280.546 470.668 274.545C476.669 268.544 480.04 260.404 480.04 251.917V31.9136C480.052 26.6599 478.77 21.4841 476.307 16.8432C473.845 12.2023 470.277 8.23919 465.92 5.30365ZM170 86.2428C170 89.506 166.752 91.778 163.655 90.7499C133.29 80.6702 95.058 75.1704 47.9079 74.0013C45.1833 73.9338 43.0001 71.7125 43.0001 68.9871C43.0001 66.1904 45.2954 63.9359 48.0912 64.006C96.859 65.2273 136.078 71.0865 166.914 81.8599C168.773 82.5093 170 84.2738 170 86.2428ZM437 68.9865C437 66.1899 434.705 63.9354 431.909 64.0052C383.14 65.2224 343.92 71.0604 313.084 81.8468C311.226 82.4967 310 84.2604 310 86.2284C310 89.4918 313.249 91.7635 316.346 90.7345C346.711 80.6451 384.942 75.1656 432.092 74.0007C434.817 73.9333 437 71.712 437 68.9865ZM170 157.135C170 160.398 166.752 162.67 163.655 161.642C133.29 151.562 95.058 146.062 47.9079 144.893C45.1833 144.826 43.0001 142.604 43.0001 139.879C43.0001 137.082 45.2954 134.828 48.0912 134.898C96.859 136.119 136.078 141.979 166.914 152.752C168.773 153.401 170 155.166 170 157.135ZM437 139.878C437 137.082 434.705 134.827 431.909 134.897C383.14 136.114 343.92 141.952 313.084 152.739C311.226 153.389 310 155.152 310 157.12C310 160.384 313.249 162.656 316.346 161.626C346.711 151.537 384.942 146.058 432.092 144.893C434.817 144.825 437 142.604 437 139.878ZM163.655 234.642C166.752 235.67 170 233.398 170 230.135C170 228.166 168.773 226.401 166.914 225.752C136.078 214.979 96.859 209.119 48.0912 207.898C45.2954 207.828 43.0001 210.082 43.0001 212.879C43.0001 215.604 45.1833 217.826 47.9079 217.893C95.058 219.062 133.29 224.562 163.655 234.642ZM431.909 207.897C434.705 207.827 437 210.082 437 212.878C437 215.604 434.817 217.825 432.092 217.893C384.942 219.058 346.711 224.537 316.346 234.626C313.249 235.656 310 233.384 310 230.12C310 228.152 311.226 226.389 313.084 225.739C343.92 214.952 383.14 209.114 431.909 207.897Z" fill="#fff"/>
</svg>
